<?xml version="1.0" encoding="UTF-8" standalone="no"?>
<!-- Created with Inkscape (http://www.inkscape.org/) -->

<svg
   xmlns:dc="http://purl.org/dc/elements/1.1/"
   xmlns:cc="http://creativecommons.org/ns#"
   xmlns:rdf="http://www.w3.org/1999/02/22-rdf-syntax-ns#"
   xmlns:svg="http://www.w3.org/2000/svg"
   xmlns="http://www.w3.org/2000/svg"
   xmlns:xlink="http://www.w3.org/1999/xlink"
   xmlns:sodipodi="http://sodipodi.sourceforge.net/DTD/sodipodi-0.dtd"
   xmlns:inkscape="http://www.inkscape.org/namespaces/inkscape"
   version="1.1"
   id="svg5728"
   width="308.86957"
   height="308.86957"
   viewBox="0 0 308.86957 308.86957"
   sodipodi:docname="ocvt_sun.svg"
   inkscape:version="0.92.2 5c3e80d, 2017-08-06">
  <metadata
     id="metadata5734">
    <rdf:RDF>
      <cc:Work
         rdf:about="">
        <dc:format>image/svg+xml</dc:format>
        <dc:type
           rdf:resource="http://purl.org/dc/dcmitype/StillImage" />
        <dc:title></dc:title>
      </cc:Work>
    </rdf:RDF>
  </metadata>
  <defs
     id="defs5732">
    <radialGradient
       inkscape:collect="always"
       xlink:href="#linearGradient6326"
       id="radialGradient6328"
       cx="96.940475"
       cy="128.01883"
       fx="96.940475"
       fy="128.01883"
       r="79.625099"
       gradientUnits="userSpaceOnUse"
       gradientTransform="matrix(0.11691217,1.280212,-1.3170135,0.12027909,276.58095,-8.5321051)" />
    <linearGradient
       inkscape:collect="always"
       id="linearGradient6326">
      <stop
         id="stop6406"
         offset="0"
         style="stop-color:#ffcc00;stop-opacity:1" />
      <stop
         style="stop-color:#ff8000;stop-opacity:1;"
         offset="0.69999999"
         id="stop6408" />
      <stop
         style="stop-color:#ff6600;stop-opacity:1"
         offset="1"
         id="stop6324" />
    </linearGradient>
  </defs>
  <sodipodi:namedview
     pagecolor="#ffffff"
     bordercolor="#666666"
     borderopacity="1"
     objecttolerance="10"
     gridtolerance="10"
     guidetolerance="10"
     inkscape:pageopacity="0"
     inkscape:pageshadow="2"
     inkscape:window-width="1278"
     inkscape:window-height="1059"
     id="namedview5730"
     showgrid="false"
     inkscape:zoom="1"
     inkscape:cx="154.43529"
     inkscape:cy="151.88272"
     inkscape:window-x="2360"
     inkscape:window-y="0"
     inkscape:window-maximized="0"
     inkscape:current-layer="svg5728" />
  <path
     style="fill:#000000;stroke-width:4.173913"
     d="m 187.82617,32.148438 -10.48633,19.720703 c -5.76706,10.846364 -9.4128,21.456483 -8.10156,23.578125 7.4048,11.981213 18.58789,-4.740977 18.58789,-27.794922 z"
     id="path4741" />
  <path
     style="fill:#000000;stroke-width:4.173913"
     d="m 144.05664,35.644531 c -0.9947,-0.0042 -2.3481,2.372895 -4.71094,6.634766 -5.95467,10.740464 -7.43878,25.627628 -2.99804,30.068359 4.70143,4.701429 13.91578,3.082825 13.86718,-2.435547 -0.0253,-2.869566 -1.24705,-12.486005 -2.71484,-21.371093 -1.47801,-8.947033 -2.16446,-12.891026 -3.44336,-12.896485 z"
     id="path4739" />
  <path
     style="fill:#000000;stroke-width:4.173913"
     d="m 93.912109,41.738281 c -9.450783,0 -7.531218,12.156027 4.386719,27.78125 10.652382,13.965992 18.570312,17.974193 18.570312,9.400391 0,-2.507474 -3.75635,-9.334978 -8.34766,-15.171875 -4.5913,-5.8369 -8.34765,-13.176656 -8.34765,-16.310547 0,-3.133887 -2.818243,-5.699219 -6.261721,-5.699219 z"
     id="path4737" />
  <path
     style="fill:#ff6600;stroke-width:4.173913"
     d="m 185.21289,43.029297 c 1.81383,0.135186 -0.27741,13.527577 -4.09375,25.498047 -2.21877,6.959471 -9.98828,9.201026 -9.98828,3.226562 0,-1.856886 4.30003,-6.198384 6.12695,-11.478515 4.37218,-12.636423 6.86678,-17.327206 7.95508,-17.246094 z"
     id="path4735" />
  <path
     style="fill:#ff6600;stroke-width:4.173913"
     d="m 142.27734,44.994141 c 0.22816,0.02469 0.48535,0.125712 0.78125,0.308593 2.29565,1.418792 3.0293,13.096912 3.0293,17.552735 0,4.455824 -2.17965,6.967767 -4.17578,8.101562 -4.20757,2.389892 -6.27495,-7.618605 -3.02734,-17.552734 1.64708,-5.038251 1.79545,-8.582968 3.39257,-8.410156 z"
     id="path4733" />
  <path
     style="fill:#ff6600;stroke-width:4.173913"
     d="m 92.306641,49.082031 c 1.352606,-0.10207 5.404921,4.338475 10.160159,11.345703 5.85259,8.624277 9.81358,16.508677 8.80273,17.519532 -2.57242,2.572425 -19.443358,-21.760475 -19.443358,-28.042969 0,-0.531663 0.168329,-0.798711 0.480469,-0.822266 z"
     id="path4731" />
  <path
     style="fill:#000000;stroke-width:4.173913"
     d="m 217.15039,58.435547 c -4.90025,0 -16.80273,22.026792 -16.80273,31.095703 0,9.146279 11.38583,8.041634 16.54882,-1.605469 5.46379,-10.209203 5.62977,-29.490234 0.25391,-29.490234 z"
     id="path4729" />
  <path
     style="fill:#ff6600;stroke-width:4.173913"
     d="m 216.07031,63.259766 c 0.66759,0.103595 0.75979,2.25023 0.82617,6.3125 0.0813,4.977458 -0.99327,12.021105 -2.38671,15.652343 -3.00939,7.842365 -10.051,8.833327 -9.83985,1.384766 0.0814,-2.869565 2.8325,-9.913214 6.11328,-15.652344 3.03457,-5.30841 4.53052,-7.814674 5.28711,-7.697265 z"
     id="path4727" />
  <path
     style="fill:#000000;stroke-width:4.173913"
     d="m 54.427734,66.783203 c -3.954486,0 6.793562,32.950641 13.308594,40.800777 6.045095,7.28389 13.374982,4.26158 14.917969,-6.15234 C 83.850783,93.35637 62.202724,66.783203 54.427734,66.783203 Z"
     id="path4725" />
  <path
     style="fill:#ff6600;stroke-width:4.173913"
     d="m 61.189453,75.214844 c 4.668668,0 17.844641,18.420673 17.982422,26.001956 0.176936,9.73602 -6.856504,9.29566 -12.242187,-0.76758 -4.815277,-8.99742 -9.85318,-25.234376 -5.740235,-25.234376 z"
     id="path4723" />
  <path
     style="fill:#000000;stroke-width:4.173913"
     d="m 247.30469,83.478516 c -3.30915,1.34e-4 -26.08789,27.139494 -26.08789,31.082034 0,4.99384 14.36911,1.93153 21.58593,-4.59961 7.42284,-6.71757 10.78275,-26.48267 4.50196,-26.482424 z"
     id="path4721" />
  <path
     style="fill:#ff6600;stroke-width:4.173913"
     d="m 243.89453,92.845703 c 0.82161,0.0699 1.3747,0.718636 1.66797,1.941406 0.76348,3.183206 -0.87627,8.514471 -3.64258,11.847661 -2.76631,3.3332 -7.75871,6.06054 -11.0957,6.06054 -4.45183,0 -3.48315,-3.15422 3.64062,-11.84765 4.51263,-5.506945 7.62216,-8.155732 9.42969,-8.001957 z"
     id="path4719" />
  <path
     style="fill:#000000;stroke-width:4.173913"
     d="m 37.230469,97.492188 c -1.865817,0.03681 -3.475481,0.647355 -4.720703,1.892578 -5.655867,5.655864 0.680088,16.107814 15.810546,26.082034 19.952194,13.15279 26.630779,8.7361 13.875,-9.17774 C 53.835623,104.54896 43.894099,97.360709 37.230469,97.492188 Z"
     id="path4717" />
  <path
     style="fill:#ff6600;stroke-width:4.173913"
     d="m 36.787109,100.66016 c 5.173763,-0.18182 17.128124,8.7987 23.240235,18.12695 8.058645,12.29905 5.062354,13.21526 -10.884766,3.32617 -10.977597,-6.8074 -17.902829,-17.00343 -14.11914,-20.78711 0.425613,-0.42561 1.024562,-0.64004 1.763671,-0.66601 z"
     id="path4715" />
  <path
     style="fill:#000000;stroke-width:4.173913"
     d="m 257.58984,121.04297 c -13.11801,0 -23.85156,0.78602 -23.85156,1.74609 0,0.96007 1.21753,4.9165 2.70508,8.79297 2.09925,5.47056 6.00618,6.51352 17.45117,4.65625 8.11,-1.31607 17.62601,-5.2725 21.14649,-8.79297 5.75187,-5.75187 3.98148,-6.40234 -17.45118,-6.40234 z"
     id="path4713" />
  <path
     style="fill:#ff6600;stroke-width:4.173913"
     d="m 255.40625,125.51172 c 13.87792,0.22636 16.07806,1.11097 9.63672,3.8789 -11.55122,4.96373 -21.97521,4.96373 -25.04297,0 -1.57657,-2.55095 4.41416,-4.0582 15.40625,-3.8789 z"
     id="path4711" />
  <path
     style="fill:#000000;stroke-width:4.173913"
     d="m 30.867188,142.34375 c -5.215408,0.0684 -2.923574,4.17582 6.697265,12.40625 14.681706,12.55991 31.304688,14.95634 31.304688,4.51367 0,-3.083 -7.512704,-8.21858 -16.695313,-11.41406 -10.654695,-3.70776 -17.738204,-5.55264 -21.30664,-5.50586 z"
     id="path4709" />
  <path
     style="fill:#ff6600;stroke-width:4.173913"
     d="m 35.460938,147.14844 c 0.682708,-7.5e-4 2.088953,0.41517 4.191406,1.17383 4.591304,1.65673 12.573064,3.92859 17.738281,5.04882 5.165218,1.12024 9.392578,3.69658 9.392578,5.72461 0,6.63921 -14.388492,3.68457 -25.044922,-5.14258 -5.781744,-4.78925 -7.779303,-6.80304 -6.277343,-6.80468 z"
     id="path4707" />
  <path
     style="fill:#000000;stroke-width:4.173913"
     d="m 243.2832,147.7207 c -4.34389,0.0809 -5.37109,1.95166 -5.37109,6.56641 0,6.16097 3.58549,8.36668 15.65234,9.62891 C 283.30891,167.02739 288,166.942 288,163.28906 c 0,-4.35037 -17.54577,-11.39234 -36.52148,-14.6582 -3.5606,-0.61281 -6.22082,-0.94694 -8.19532,-0.91016 z"
     id="path4705" />
  <path
     style="fill:#ff6600;stroke-width:4.173913"
     d="m 247.16406,153.44336 c 9.21793,0.0144 28.05366,3.5146 31.26172,6.72266 1.43944,1.43944 -0.0427,2.3166 -3.29492,1.94921 -26.37469,-2.97948 -33.04297,-4.47059 -33.04297,-7.38476 0,-0.90943 2.00353,-1.29192 5.07617,-1.28711 z"
     id="path4703" />
  <path
     style="fill:#000000;stroke-width:4.173913"
     d="m 244.00977,173.18359 c -1.50235,-0.0179 -2.79244,0.14355 -3.77735,0.52149 -7.78837,2.98868 -8.57588,12.58544 -1.27539,15.53125 9.81004,3.95844 36.52149,2.77123 36.52149,-1.62305 0,-5.36611 -20.95231,-14.30447 -31.46875,-14.42969 z"
     id="path4701" />
  <path
     style="fill:#ff6600;stroke-width:4.173913"
     d="m 244.51367,177.39453 c 3.72091,-0.10223 9.06042,1.0933 15.08399,3.72461 l 13.79296,6.02539 -15.40429,0.3418 c -8.47322,0.18726 -16.48784,-1.4079 -17.8086,-3.54492 -2.55665,-4.13676 -0.44808,-6.41543 4.33594,-6.54688 z"
     id="path4699" />
  <path
     style="fill:#000000;stroke-width:4.173913"
     d="m 53.810547,179.47852 c -16.648137,0 -17.298572,0.41554 -9.738281,6.21875 9.339811,7.16915 23.349137,6.62625 25.861328,-1.00196 1.194862,-3.62817 -3.716274,-5.21679 -16.123047,-5.21679 z"
     id="path4697" />
  <path
     style="fill:#ff6600;stroke-width:4.173913"
     d="m 55.933594,181.22852 c 5.810755,-0.0639 11.988165,0.72096 9.517578,3.01562 2.869565,1.15789 -1.276495,2.92383 -7.015625,2.92383 -5.739131,0 -13.486753,-3.89289 -10.617188,-5.05078 1.273568,-0.50697 4.628782,-0.85036 8.115235,-0.88867 z"
     id="path4695" />
  <path
     style="fill:#000000;stroke-width:4.173913"
     d="m 230.83789,198.77344 c -1.9033,-0.17768 -2.93512,1.04883 -3.86523,3.47265 -1.38359,3.6056 -0.19686,9.34944 2.63672,12.76368 4.40147,5.30346 29.17382,9.22223 29.17382,4.61523 0,-0.87536 -6.59259,-6.61723 -14.64843,-12.76172 -6.96271,-5.31071 -10.84978,-7.8614 -13.29688,-8.08984 z"
     id="path4693" />
  <path
     style="fill:#000000;stroke-width:4.173913"
     d="m 74.996094,200.34766 c -8.618863,0 -33.257813,12.21081 -33.257813,16.48242 0,5.63684 19.003537,5.67975 29.492188,0.0664 8.456878,-4.52599 11.192678,-16.54882 3.765625,-16.54882 z"
     id="path4691" />
  <path
     style="fill:#ff6600;stroke-width:4.173913"
     d="m 230.93359,201.10352 c 0.48889,0.0622 1.10372,0.62011 1.82618,1.6875 1.68659,2.49185 6.82275,6.66205 11.41406,9.26562 8.265,4.68678 8.2617,4.7337 -0.34766,4.85938 -10.3961,0.15174 -14.28336,-3.14645 -14.19726,-12.04688 0.0251,-2.59494 0.48987,-3.8693 1.30468,-3.76562 z"
     id="path4689" />
  <path
     style="fill:#ff6600;stroke-width:4.173913"
     d="m 72.691406,206.50586 c 4.036556,0.21263 4.364468,2.59374 -1.855468,6.52734 -3.376997,2.13568 -10.835088,3.75757 -16.574219,3.60547 -9.62415,-0.25508 -9.343998,-0.75201 3.615234,-6.40625 6.291888,-2.74521 11.67491,-3.89194 14.814453,-3.72656 z"
     id="path4687" />
  <path
     style="fill:#000000;stroke-width:4.173913"
     d="m 218.08398,214.88477 c -1.62829,-0.0763 -2.58287,1.31971 -3.57617,3.9082 -1.84778,4.81524 0.59502,10.64919 7.17188,17.13281 9.6792,9.54197 24.58203,13.77372 24.58203,6.98047 0,-1.84532 -6.51522,-9.66827 -14.47656,-17.38477 -7.50017,-7.26944 -11.32137,-10.52527 -13.70118,-10.63671 z"
     id="path4685" />
  <path
     style="fill:#000000;stroke-width:4.173913"
     d="m 89.115234,217.28125 c -6.359083,0.15707 -13.670375,5.68347 -19.361328,15.42773 -7.900796,13.52817 -7.898445,13.55274 1.007813,13.55274 11.704103,0 31.996281,-19.95488 26.193359,-25.75781 -2.256062,-2.25607 -4.949351,-3.29406 -7.839844,-3.22266 z"
     id="path4683" />
  <path
     style="fill:#ff6600;stroke-width:4.173913"
     d="m 219.16016,220.49609 c 2.32165,-0.0347 6.80881,3.13693 12.29687,8.86524 13.41414,14.00134 10.07822,16.93043 -5.57422,4.89453 -5.46832,-4.20486 -9.19358,-9.88992 -8.27929,-12.63281 0.24944,-0.74833 0.78275,-1.11538 1.55664,-1.12696 z"
     id="path4681" />
  <path
     style="fill:#ff6600;stroke-width:4.173913"
     d="m 88.242188,221.69727 c 0.594584,-1.6e-4 1.172958,0.052 1.724609,0.1582 7.650048,1.47327 7.589564,1.98075 -1.318359,10.88867 -14.820552,14.82055 -23.943759,11.13975 -12.199219,-4.92187 2.643641,-3.6154 7.630875,-6.12391 11.792969,-6.125 z"
     id="path4679" />
  <path
     style="fill:#000000;stroke-width:4.173913"
     d="m 197.36133,233.73828 c -8.35453,0 -6.30993,13.06154 3.71484,23.73242 16.12755,17.16699 21.56822,9.99425 8.80664,-11.60937 -3.93843,-6.66725 -9.57296,-12.12305 -12.52148,-12.12305 z"
     id="path4677" />
  <path
     style="fill:#000000;stroke-width:4.173913"
     d="m 111.3125,235.06641 c -1.56133,-0.11497 -4.85084,2.97974 -11.728516,9.85742 -9.411832,9.41183 -12.270015,15.27779 -10.128906,20.78906 2.714342,6.9868 3.894009,6.62394 13.111332,-4.0332 5.57085,-6.44105 10.1289,-15.79601 10.1289,-20.78907 0,-3.70379 -0.16844,-5.7348 -1.38281,-5.82421 z"
     id="path4675" />
  <path
     style="fill:#ff6600;stroke-width:4.173913"
     d="m 198.81836,239.83789 c 1.70853,0.0619 4.36505,2.6974 7.63086,7.68164 4.15268,6.3378 6.65861,12.4156 5.56836,13.50586 -3.47398,3.47398 -16.77322,-14.05925 -14.9082,-19.6543 0.35216,-1.0565 0.93237,-1.56132 1.70898,-1.5332 z"
     id="path4673" />
  <path
     style="fill:#000000;stroke-width:4.173913"
     d="m 128.80859,242.08789 c -7.5329,0 -15.83551,13.55168 -15.98047,26.08594 -0.18363,15.87864 10.41937,14.78523 16.1543,-1.66602 5.86337,-16.81965 5.81008,-24.41992 -0.17383,-24.41992 z"
     id="path4671" />
  <path
     style="fill:#000000;stroke-width:4.173913"
     d="m 173.42969,242.08789 c -3.56062,0 -6.47266,0.7087 -6.47266,1.57617 0,3.53155 12.00791,29.94861 14.93555,32.85742 C 186.42422,281.02399 192,280.37422 192,275.34375 192,264.827 179.30186,242.08789 173.42969,242.08789 Z"
     id="path4669" />
  <path
     style="fill:#ff6600;stroke-width:4.173913"
     d="m 107.50977,243.99414 c 0.64453,0.0341 1.01171,0.4091 1.01171,1.1582 0,2.39713 -3.69405,8.7914 -8.20898,14.21094 -6.238067,7.48791 -8.242139,8.25632 -8.347656,3.19727 -0.07637,-3.66159 3.617684,-10.05782 8.208986,-14.21289 3.15652,-2.85661 5.91797,-4.42861 7.33594,-4.35352 z"
     id="path4667" />
  <path
     style="fill:#000000;stroke-width:4.173913"
     d="m 148.30469,246.26172 c -8.71716,0 -8.2058,16.44969 0.91211,29.33203 l 7.30468,10.31836 1.3379,-13.96094 c 1.67963,-17.53331 -1.35413,-25.68945 -9.55469,-25.68945 z"
     id="path4665" />
  <path
     style="fill:#ff6600;stroke-width:4.173913"
     d="m 174.65039,246.26172 c 2.20656,0 6.08076,5.93804 8.61133,13.19726 5.72293,16.41679 2.26301,21.49094 -3.79297,5.5625 -2.42882,-6.38826 -5.40867,-13.2226 -6.62305,-15.1875 -1.21437,-1.96491 -0.40188,-3.57226 1.80469,-3.57226 z"
     id="path4663" />
  <path
     style="fill:#ff6600;stroke-width:4.173913"
     d="m 128.55273,246.78125 c 1.39991,-0.0824 0.88903,2.82541 -0.85156,9.91406 -4.24572,17.29097 -10.83203,23.18471 -10.83203,9.69336 0,-5.91717 3.12886,-13.33567 6.95313,-16.48633 2.36176,-1.94575 3.89052,-3.07166 4.73046,-3.12109 z"
     id="path4661" />
  <path
     style="fill:#ff6600;stroke-width:4.173913"
     d="m 150.26172,250.43555 c 2.29565,0 4.17383,4.69446 4.17383,10.43359 0,10.92755 -0.96534,12.25342 -5.56641,7.65234 -4.32989,-4.32989 -3.27038,-18.08593 1.39258,-18.08593 z"
     id="path6281" />
  <g
     inkscape:groupmode="layer"
     id="layer1"
     inkscape:label="Layer 1" />
  <g
     inkscape:groupmode="layer"
     id="layer2"
     inkscape:label="Layer 2" />
  <path
     style="fill:#000000;stroke-width:4.173913"
     d="m 149.21739,275.59303 c -9.11791,-12.88234 -9.62964,-29.33216 -0.91248,-29.33216 8.20056,0 11.23403,8.15631 9.5544,25.68962 l -1.33757,13.96256 z m 5.21739,-14.72346 c 0,-5.73912 -1.87826,-10.43477 -4.17391,-10.43477 -4.66296,0 -5.72119,13.75706 -1.3913,18.08695 4.60107,4.60108 5.56521,3.27537 5.56521,-7.65218 z m -41.60638,7.30435 c 0.14496,-12.53425 8.44667,-26.08696 15.97957,-26.08696 5.98391,0 6.03838,7.60099 0.17501,24.42065 -5.73493,16.45125 -16.33822,17.54496 -16.15459,1.66631 z m 14.87293,-11.47825 c 2.78494,-11.34184 2.41948,-11.98197 -3.87855,-6.79328 -3.82427,3.15065 -6.95321,10.56978 -6.95321,16.48695 0,13.49135 6.58604,7.59729 10.83176,-9.69367 z m 54.19146,19.82608 c -2.92764,-2.90882 -14.93627,-29.32601 -14.93627,-32.85757 0,-0.86746 2.91324,-1.57722 6.47386,-1.57722 5.87217,0 18.56962,22.74049 18.56962,33.25724 0,5.03047 -5.57557,5.68005 -10.10721,1.17755 z m 1.36989,-17.0623 c -2.53057,-7.25922 -6.40641,-13.19858 -8.61297,-13.19858 -2.20657,0 -3.01835,1.60765 -1.80398,3.57257 1.21438,1.9649 4.19517,8.7993 6.62399,15.18756 6.05598,15.92845 9.51589,10.85524 3.79296,-5.56155 z m -93.807416,6.25414 c -2.141109,-5.51127 0.716982,-11.37746 10.128814,-20.7893 12.226982,-12.22699 13.111572,-12.4991 13.111572,-4.03328 0,4.99305 -4.55796,14.34824 -10.12881,20.78928 -9.217319,10.65715 -10.397234,11.02011 -13.111576,4.0333 z m 19.066476,-20.56203 c 0,-2.39712 -3.75652,-0.95879 -8.34783,3.19627 -4.5913,4.15507 -8.285334,10.55054 -8.20896,14.21212 0.105517,5.05906 2.109763,4.29166 8.34783,-3.19625 4.51493,-5.41955 8.20896,-11.815 8.20896,-14.21214 z m 92.55366,12.31856 c -10.02477,-10.67088 -12.06899,-23.73099 -3.71446,-23.73099 2.94852,0 8.58331,5.45502 12.52174,12.12227 12.76158,21.60362 7.32027,28.77571 -8.80728,11.60872 z m 5.37462,-9.95025 c -4.75026,-7.24981 -8.21462,-9.53042 -9.34155,-6.14961 -1.86502,5.59505 11.43562,23.12914 14.9096,19.65516 1.09025,-1.09026 -1.41537,-7.16775 -5.56805,-13.50555 z M 69.754816,232.7093 c 8.27775,-14.17347 19.98139,-19.42527 27.20079,-12.20587 5.802924,5.80293 -14.489472,25.75744 -26.193575,25.75744 -8.906258,0 -8.908011,-0.0234 -1.007215,-13.55157 z m 18.892904,0.0342 c 8.907924,-8.90791 8.969414,-9.41539 1.319366,-10.88865 -4.413208,-0.8499 -10.495985,1.83534 -13.517289,5.96722 -11.74454,16.06162 -2.622628,19.74198 12.197923,4.92143 z m 133.03181,3.18146 c -6.57686,-6.48362 -9.0186,-12.31749 -7.17082,-17.13273 2.44505,-6.37167 4.64514,-5.51486 17.277,6.72842 7.96134,7.7165 14.47516,15.53975 14.47516,17.38507 0,6.79325 -14.90214,2.56128 -24.58134,-6.98069 z m 9.77785,-6.56315 c -7.31742,-7.63775 -12.85598,-10.7313 -13.85375,-7.738 -0.91429,2.74289 2.81173,8.4274 8.28005,12.63226 15.65244,12.0359 18.98784,9.10708 5.5737,-4.89426 z M 41.739131,216.8305 c 0,-4.27161 24.63838,-16.48267 33.257243,-16.48267 7.427053,0 4.691424,12.02281 -3.765454,16.5488 -10.488651,5.61335 -29.491789,5.57074 -29.491789,-0.0661 z m 29.096515,-3.7979 c 11.057664,-6.99308 1.422674,-9.07533 -12.958785,-2.80057 -12.959232,5.65424 -13.240141,6.15197 -3.615991,6.40705 5.739131,0.1521 13.19778,-1.4708 16.574776,-3.60648 z m 158.773694,1.97708 c -2.83357,-3.41424 -4.01991,-9.15775 -2.63632,-12.76335 2.12597,-5.54017 4.78447,-4.82512 17.16261,4.61615 8.05584,6.14449 14.64698,11.888 14.64698,12.76336 0,4.607 -24.7718,0.6873 -29.17327,-4.61616 z m 14.56458,-2.95379 c -4.59131,-2.60357 -9.72776,-6.77254 -11.41435,-9.26439 -1.92654,-2.84636 -3.09028,-2.07382 -3.13043,2.07807 -0.0861,8.90043 3.80085,12.19874 14.19695,12.04699 8.60936,-0.12568 8.61281,-0.17389 0.34781,-4.86067 z M 44.071806,185.69737 c -7.560291,-5.80321 -6.909004,-6.21911 9.739133,-6.21911 12.406773,0 17.317858,1.58923 16.122996,5.2174 -2.512191,7.62821 -16.522318,8.17086 -25.862129,1.00171 z m 21.379927,-1.45356 c 3.95294,-3.67146 -14.236836,-3.47867 -17.633015,-2.12675 -2.869565,1.1579 4.876935,5.04999 10.616066,5.04999 5.73913,0 9.886514,-1.76535 7.016949,-2.92324 z m 173.504797,4.99189 c -7.30049,-2.94581 -6.51159,-12.54159 1.27678,-15.53028 7.87924,-3.02354 35.24496,7.77499 35.24496,13.90769 0,4.39428 -26.7117,5.58103 -36.52174,1.62259 z m 20.64116,-8.11613 c -13.76814,-6.01442 -23.9646,-4.53321 -19.41944,2.82102 1.32076,2.13703 9.334,3.73228 17.80722,3.54502 l 15.40584,-0.34048 z M 37.565218,154.74976 C 21.3617,140.88797 25.946971,138.72192 52.173914,147.84871 c 9.182609,3.19548 16.695652,8.33242 16.695652,11.41542 0,10.44266 -16.622642,8.04553 -31.304348,-4.51437 z m 29.217392,4.34552 c 0,-2.02803 -4.226087,-4.60388 -9.391305,-5.72412 -5.165217,-1.12022 -13.147826,-3.3923 -17.73913,-5.04902 -6.727849,-2.4277 -6.322854,-1.33488 2.086956,5.63131 10.65643,8.82714 25.043479,11.78105 25.043479,5.14183 z m 186.78261,4.82068 c -12.06685,-1.26222 -15.65217,-3.46781 -15.65217,-9.62879 0,-6.71236 2.17129,-7.61781 13.56521,-5.65683 C 270.45397,151.8962 288,158.93862 288,163.28899 c 0,3.65294 -4.69032,3.73834 -34.43478,0.62697 z m 24.86111,-3.75049 c -4.27741,-4.27741 -36.33937,-9.07238 -36.33937,-5.43468 0,2.91417 6.66879,4.40437 33.04348,7.38385 3.25217,0.36739 4.73533,-0.50973 3.29589,-1.94917 z m -41.98257,-28.58269 c -1.48755,-3.87647 -2.70463,-7.83365 -2.70463,-8.79372 0,-0.96007 10.73293,-1.74558 23.85094,-1.74558 21.43266,0 23.20194,0.64899 17.45007,6.40086 -3.52048,3.52047 -13.03631,7.47765 -21.14631,8.79372 -11.44499,1.85727 -15.35082,0.81528 -17.45007,-4.65528 z m 28.59972,-2.19147 c 6.44134,-2.76794 4.24029,-3.65419 -9.63763,-3.88055 -10.99209,-0.1793 -16.98242,1.3296 -15.40585,3.88055 3.06776,4.96373 13.49226,4.96373 25.04348,0 z M 48.321271,125.46748 C 33.190813,115.49326 26.85481,105.04084 32.510677,99.384981 c 5.692444,-5.692445 18.984033,1.876429 29.684435,16.903759 12.755779,17.91385 6.078353,22.33154 -13.873841,9.17874 z m 11.705593,-6.68045 C 53.041595,108.12617 38.427438,97.920393 35.022533,101.3253 c -3.783689,3.78368 3.141874,13.9797 14.119471,20.7871 15.94712,9.88909 18.943505,8.97368 10.88486,-3.32537 z M 221.21739,114.5596 c 0,-3.94254 22.77781,-31.08108 26.08696,-31.081214 6.28079,-2.46e-4 2.92027,19.765834 -4.50257,26.483404 -7.21682,6.53114 -21.58439,9.59165 -21.58439,4.59781 z m 20.70316,-7.92431 c 2.76631,-3.33319 4.40499,-8.664789 3.64151,-11.847995 -0.93848,-3.912864 -4.53309,-1.949739 -11.09691,6.060355 -7.12377,8.69343 -8.09334,11.848 -3.64151,11.848 3.33699,0 8.3306,-2.72716 11.09691,-6.06036 z M 67.736679,107.58437 C 61.221647,99.734233 50.47352,66.782613 54.428006,66.782613 c 7.77499,0 29.422728,26.573109 28.226242,34.648377 -1.542987,10.41392 -8.872474,13.43727 -14.917569,6.15338 z m 11.434927,-6.36698 C 79.033825,93.636113 65.857751,75.214448 61.189083,75.214448 c -4.112945,0 0.925105,16.236446 5.740382,25.233862 5.385683,10.06324 12.419077,10.5051 12.242141,0.76908 z M 200.34783,89.531858 c 0,-9.068911 11.90259,-31.097071 16.80284,-31.097071 5.37586,0 5.20976,19.282585 -0.25403,29.491788 -5.16299,9.647103 -16.54881,10.751562 -16.54881,1.605283 z m 14.16213,-4.308008 c 1.39344,-3.631238 2.46696,-10.674716 2.38562,-15.652174 -0.14163,-8.666175 -0.40085,-8.607452 -6.11297,1.38485 -3.28078,5.73913 -6.03162,12.782609 -6.11297,15.652174 -0.21115,7.448561 6.83093,6.457515 9.84032,-1.38485 z M 98.299373,69.519068 C 86.381436,53.893845 84.462262,41.739134 93.913045,41.739134 c 3.443478,0 6.260865,2.564093 6.260865,5.69798 0,3.133891 3.75653,10.473625 8.34783,16.310525 4.59131,5.836897 8.34783,12.664108 8.34783,15.171582 0,8.573802 -7.91782,4.565839 -18.570197,-9.400153 z m 4.167797,-9.090424 C 96.614573,51.804363 91.826088,47.068119 91.826088,49.903655 c 0,6.282494 16.871822,30.615836 19.444242,28.043411 1.01085,-1.010855 -2.95057,-8.894145 -8.80316,-17.518422 z m 66.77185,15.018186 c -1.31124,-2.121642 2.33443,-12.731821 8.10149,-23.578185 l 10.48558,-19.720657 v 15.504755 c 0,23.053945 -11.18227,39.7753 -18.58707,27.794087 z m 11.87964,-6.918633 c 6.10614,-19.152752 7.79905,-41.9493 -3.8601,-8.252172 -1.82692,5.280131 -6.12812,9.621375 -6.12812,11.478261 0,5.974464 7.76945,3.733382 9.98822,-3.226089 z m -44.77083,3.819632 c -4.44074,-4.440731 -2.95618,-19.327288 2.99849,-30.067752 5.40078,-9.741419 5.5264,-9.644965 8.15398,6.26087 1.46779,8.885088 2.68937,18.502535 2.71463,21.372101 0.0486,5.518372 -9.16567,7.13621 -13.8671,2.434781 z m 9.73913,-9.492798 c 0,-4.455823 -0.73309,-16.133361 -3.02874,-17.552153 -2.36727,-1.463053 -2.29154,2.343493 -4.17392,8.101494 -3.24761,9.934129 -1.17882,19.942046 3.02875,17.552154 1.99613,-1.133795 4.17391,-3.645671 4.17391,-8.101495 z"
     id="path6281-3"
     inkscape:connector-curvature="0"
     sodipodi:nodetypes="ssscssscscssccsssscsssccscccssssssccsssscssccscsscscsscccsccsccsssssssscsccssccsccccssssccscscssscccsssssscssssscsssssscsscscsscsssssscsssccsccsscsssssssssscsccsccssscsssscscscscssssssccssssss" />
  <circle
     style="opacity:1;fill:url(#radialGradient6328);fill-opacity:1;stroke:none;stroke-width:0.91493005;stroke-opacity:1"
     id="path6320"
     cx="152.15543"
     cy="160.39264"
     r="79.167633" />
  <path
     style="fill:#000000;stroke-width:4.173913"
     d="m 149.21739,275.59303 c -9.11791,-12.88234 -9.62964,-29.33216 -0.91248,-29.33216 8.20056,0 11.23403,8.15631 9.5544,25.68962 l -1.33757,13.96256 z m 5.21739,-14.72346 c 0,-5.73912 -1.87826,-10.43477 -4.17391,-10.43477 -4.66296,0 -5.72119,13.75707 -1.3913,18.08695 4.60107,4.60109 5.56521,3.27537 5.56521,-7.65218 z m -41.60638,7.30435 c 0.14496,-12.53424 8.44667,-26.08696 15.97957,-26.08696 5.98391,0 6.03838,7.60099 0.17501,24.42065 -5.73493,16.45125 -16.33822,17.54496 -16.15459,1.66631 z m 14.87293,-11.47825 c 2.78494,-11.34184 2.41948,-11.98197 -3.87855,-6.79328 -3.82427,3.15065 -6.95321,10.56978 -6.95321,16.48695 0,13.49135 6.58604,7.59729 10.83176,-9.69367 z m 54.19146,19.82608 c -2.92764,-2.90882 -14.93627,-29.32601 -14.93627,-32.85757 0,-0.86746 2.91324,-1.57722 6.47386,-1.57722 5.87217,0 18.56962,22.74049 18.56962,33.25724 0,5.03047 -5.57557,5.68005 -10.10721,1.17755 z m 1.36989,-17.0623 c -2.53057,-7.25922 -6.40641,-13.19858 -8.61297,-13.19858 -2.20657,0 -3.01835,1.60765 -1.80398,3.57258 1.21438,1.9649 4.19517,8.79929 6.62399,15.18755 6.05598,15.92845 9.51589,10.85524 3.79296,-5.56155 z m -93.807416,6.25414 c -2.141109,-5.51127 0.716982,-11.37745 10.128814,-20.7893 12.226982,-12.22699 13.111572,-12.4991 13.111572,-4.03327 0,4.99305 -4.55796,14.34824 -10.12881,20.78927 -9.217319,10.65715 -10.397234,11.02011 -13.111576,4.0333 z m 19.066476,-20.56203 c 0,-2.39712 -3.75652,-0.95878 -8.34783,3.19627 -4.5913,4.15507 -8.285334,10.55054 -8.20896,14.21212 0.105517,5.05906 2.109763,4.29166 8.34783,-3.19625 4.51493,-5.41955 8.20896,-11.815 8.20896,-14.21214 z m 92.55366,12.31856 c -10.02477,-10.67088 -12.06899,-23.73099 -3.71446,-23.73099 2.94852,0 8.58331,5.45502 12.52174,12.12227 12.76158,21.60362 7.32027,28.77571 -8.80728,11.60872 z m 5.37462,-9.95025 c -4.75026,-7.24981 -8.21462,-9.53042 -9.34155,-6.14961 -1.86502,5.59505 11.43562,23.12914 14.9096,19.65516 1.09025,-1.09026 -1.41537,-7.16775 -5.56805,-13.50555 z M 69.754816,232.7093 c 8.27775,-14.17347 19.98139,-19.42527 27.20079,-12.20587 5.802924,5.80293 -14.489472,25.75744 -26.193575,25.75744 -8.906258,0 -8.908011,-0.0234 -1.007215,-13.55157 z m 18.892904,0.0342 c 8.907924,-8.9079 8.969414,-9.41539 1.319366,-10.88865 -4.413208,-0.8499 -10.495985,1.83534 -13.517289,5.96722 -11.74454,16.06162 -2.622628,19.74198 12.197923,4.92143 z m 133.03181,3.18146 c -6.57686,-6.48362 -9.0186,-12.31749 -7.17082,-17.13273 2.44505,-6.37167 4.64514,-5.51486 17.277,6.72842 7.96134,7.7165 14.47516,15.53975 14.47516,17.38507 0,6.79325 -14.90214,2.56128 -24.58134,-6.98069 z m 9.77785,-6.56315 c -7.31742,-7.63775 -12.85598,-10.7313 -13.85375,-7.738 -0.91429,2.74289 2.81173,8.4274 8.28005,12.63226 15.65244,12.0359 18.98784,9.10708 5.5737,-4.89426 z M 41.739131,216.8305 c 0,-4.27161 24.63838,-16.48267 33.257243,-16.48267 7.427053,0 4.691424,12.02281 -3.765454,16.5488 -10.488651,5.61335 -29.491789,5.57074 -29.491789,-0.0661 z m 29.096515,-3.7979 c 11.057664,-6.99308 1.422674,-9.07533 -12.958785,-2.80057 -12.959232,5.65424 -13.240141,6.15197 -3.615991,6.40705 5.739131,0.1521 13.19778,-1.4708 16.574776,-3.60648 z m 158.773694,1.97708 c -2.83357,-3.41424 -4.01991,-9.15775 -2.63632,-12.76335 2.12597,-5.54017 4.78447,-4.82512 17.16261,4.61615 8.05584,6.14449 14.64698,11.888 14.64698,12.76336 0,4.607 -24.7718,0.6873 -29.17327,-4.61616 z m 14.56458,-2.95379 c -4.59131,-2.60357 -9.72776,-6.77254 -11.41435,-9.26439 -1.92654,-2.84636 -3.09028,-2.07382 -3.13043,2.07807 -0.0861,8.90043 3.80085,12.19874 14.19695,12.04699 8.60936,-0.12568 8.61281,-0.17389 0.34781,-4.86067 z M 44.071806,185.69737 c -7.560291,-5.80321 -6.909004,-6.21911 9.739133,-6.21911 12.406773,0 17.317858,1.58923 16.122996,5.2174 -2.512191,7.62821 -16.522318,8.17086 -25.862129,1.00171 z m 21.379927,-1.45356 c 3.95294,-3.67146 -14.236836,-3.47867 -17.633015,-2.12675 -2.869565,1.15791 4.876935,5.04999 10.616066,5.04999 5.73913,0 9.886514,-1.76535 7.016949,-2.92324 z m 173.504797,4.99189 c -7.30049,-2.94581 -6.51159,-12.54158 1.27678,-15.53028 7.87924,-3.02354 35.24496,7.77499 35.24496,13.90769 0,4.39428 -26.7117,5.58103 -36.52174,1.62259 z m 20.64116,-8.11613 c -13.76814,-6.01442 -23.9646,-4.53321 -19.41944,2.82102 1.32076,2.13704 9.334,3.73228 17.80722,3.54502 l 15.40584,-0.34048 z M 37.565218,154.74977 c -16.203518,-13.8618 -11.618247,-16.02784 14.608696,-6.90105 9.182609,3.19548 16.695652,8.33242 16.695652,11.41542 0,10.44265 -16.622642,8.04552 -31.304348,-4.51437 z m 29.217392,4.34551 c 0,-2.02803 -4.226087,-4.60388 -9.391305,-5.72412 -5.165217,-1.12021 -13.147826,-3.3923 -17.73913,-5.04902 -6.727849,-2.4277 -6.322854,-1.33488 2.086956,5.63131 10.65643,8.82714 25.043479,11.78105 25.043479,5.14183 z m 186.78261,4.82068 c -12.06685,-1.26222 -15.65217,-3.46781 -15.65217,-9.62879 0,-6.71235 2.17129,-7.6178 13.56521,-5.65683 C 270.45397,151.8962 288,158.93862 288,163.28899 c 0,3.65294 -4.69032,3.73834 -34.43478,0.62697 z m 24.86111,-3.75049 c -4.27741,-4.27741 -36.33937,-9.07238 -36.33937,-5.43467 0,2.91417 6.66879,4.40437 33.04348,7.38384 3.25217,0.36739 4.73533,-0.50973 3.29589,-1.94917 z m -41.98257,-28.58269 c -1.48755,-3.87647 -2.70463,-7.83365 -2.70463,-8.79372 0,-0.96007 10.73293,-1.74558 23.85094,-1.74558 21.43266,0 23.20194,0.64899 17.45007,6.40086 -3.52048,3.52047 -13.03631,7.47765 -21.14631,8.79372 -11.44499,1.85727 -15.35082,0.81528 -17.45007,-4.65528 z m 28.59972,-2.19147 c 6.44134,-2.76794 4.24029,-3.65419 -9.63763,-3.88055 -10.99209,-0.1793 -16.98242,1.3296 -15.40585,3.88055 3.06776,4.96373 13.49226,4.96373 25.04348,0 z M 48.321271,125.46748 C 33.190813,115.49326 26.85481,105.04084 32.510677,99.384984 c 5.692444,-5.692445 18.984033,1.876426 29.684435,16.903756 12.755779,17.91385 6.078353,22.33154 -13.873841,9.17874 z m 11.705593,-6.68045 C 53.041595,108.12617 38.427438,97.920396 35.022533,101.3253 c -3.783689,3.78368 3.141874,13.9797 14.119471,20.7871 15.94712,9.88909 18.943505,8.97368 10.88486,-3.32537 z M 221.21739,114.5596 c 0,-3.94254 22.77781,-31.081077 26.08696,-31.081211 6.28079,-2.46e-4 2.92027,19.765831 -4.50257,26.483401 -7.21682,6.53114 -21.58439,9.59165 -21.58439,4.59781 z m 20.70316,-7.92431 c 2.76631,-3.33319 4.40499,-8.664786 3.64151,-11.847992 -0.93848,-3.912864 -4.53309,-1.949739 -11.09691,6.060352 -7.12377,8.69343 -8.09334,11.848 -3.64151,11.848 3.33699,0 8.3306,-2.72716 11.09691,-6.06036 z M 67.736679,107.58437 C 61.221647,99.734236 50.47352,66.782616 54.428006,66.782616 c 7.77499,0 29.422728,26.573109 28.226242,34.648374 -1.542987,10.41392 -8.872474,13.43727 -14.917569,6.15338 z m 11.434927,-6.36698 C 79.033825,93.636116 65.857751,75.214451 61.189083,75.214451 c -4.112945,0 0.925105,16.236446 5.740382,25.233859 5.385683,10.06324 12.419077,10.5051 12.242141,0.76908 z M 200.34783,89.531861 c 0,-9.068911 11.90259,-31.097071 16.80284,-31.097071 5.37586,0 5.20976,19.282585 -0.25403,29.491788 -5.16299,9.647103 -16.54881,10.751562 -16.54881,1.605283 z m 14.16213,-4.308008 c 1.39344,-3.631238 2.46696,-10.674716 2.38562,-15.652174 -0.14163,-8.666175 -0.40085,-8.607452 -6.11297,1.38485 -3.28078,5.73913 -6.03162,12.782609 -6.11297,15.652174 -0.21115,7.448561 6.83093,6.457515 9.84032,-1.38485 z M 98.299373,69.519071 C 86.381436,53.893848 84.462262,41.739137 93.913045,41.739137 c 3.443478,0 6.260865,2.564093 6.260865,5.69798 0,3.133891 3.75653,10.473625 8.34783,16.310525 4.59131,5.836897 8.34783,12.664108 8.34783,15.171582 0,8.573802 -7.91782,4.565839 -18.570197,-9.400153 z m 4.167797,-9.090424 C 96.614573,51.804366 91.826088,47.068122 91.826088,49.903658 c 0,6.282494 16.871822,30.615836 19.444242,28.043411 1.01085,-1.010855 -2.95057,-8.894145 -8.80316,-17.518422 z m 66.77185,15.018186 c -1.31124,-2.121642 2.33443,-12.731821 8.10149,-23.578185 l 10.48558,-19.720657 v 15.504755 c 0,23.053945 -11.18227,39.7753 -18.58707,27.794087 z M 181.11866,68.5282 c 6.10614,-19.152752 7.79905,-41.9493 -3.8601,-8.252172 -1.82692,5.280131 -6.12812,9.621375 -6.12812,11.478261 0,5.974464 7.76945,3.733382 9.98822,-3.226089 z m -44.77083,3.819632 c -4.44074,-4.440731 -2.95618,-19.327288 2.99849,-30.067752 5.40078,-9.741419 5.5264,-9.644965 8.15398,6.26087 1.46779,8.885088 2.68937,18.502535 2.71463,21.372101 0.0486,5.518372 -9.16567,7.13621 -13.8671,2.434781 z m 9.73913,-9.492798 c 0,-4.455823 -0.73309,-16.133361 -3.02874,-17.552153 -2.36727,-1.463053 -2.29154,2.343493 -4.17392,8.101494 -3.24761,9.934129 -1.17882,19.942046 3.02875,17.552154 1.99613,-1.133795 4.17391,-3.645671 4.17391,-8.101495 z"
     id="path6281-6"
     inkscape:connector-curvature="0"
     sodipodi:nodetypes="ssscssscscssccsssscsssccscccssssssccsssscssccscsscscsscccsccsccsssssssscsccssccsccccssssccscscssscccsssssscssssscsssssscsscscsscsssssscsssccsccsscsssssssssscsccsccssscsssscscscscssssssccssssss" />
</svg>
